<svg xmlns="http://www.w3.org/2000/svg" xmlns:svg="http://www.w3.org/2000/svg" id="svg2" width="192" height="192" version="1.1"><defs id="defs4"><filter id="filter3800" width="1.039" height="1.492" x="-.019" y="-.246"><feGaussianBlur id="feGaussianBlur3802" stdDeviation="1.23"/></filter><filter id="filter3796" width="1.066" height="1.63" x="-.033" y="-.315"><feGaussianBlur id="feGaussianBlur3798" stdDeviation="2.1"/></filter></defs><metadata id="metadata7"/><g id="layer1" transform="translate(0,-860.36218)"><path id="rect3764" fill="#000" fill-opacity="1" stroke="none" d="m 20,1020.3622 0,6 c 0,5.54 4.46,10 10,10 l 132,0 c 5.54,0 10,-4.46 10,-10 l 0,-6 c 0,5.54 -4.46,10 -10,10 l -132,0 c -5.54,0 -10,-4.46 -10,-10 z" filter="url(#filter3796)" opacity=".15"/><rect id="rect2985" width="152" height="152" x="20" y="880.362" fill="#ffc107" fill-opacity="1" stroke="none" opacity="1" rx="10" ry="10"/><path id="path3804" fill="#fff8e1" fill-opacity="1" stroke="none" d="m 74,54 -16,-34 76,0 -16,34 -10,8 -24,0 z" opacity=".35" transform="translate(0,860.36218)"/><path id="path3770" fill="#e65100" fill-opacity="1" stroke="none" d="m 74,945.36216 0,-31 11,6.00002 11,-17.00002 11,17.00002 11,-6.00002 0,31 z"/><path id="rect3806" fill="#ff5252" fill-opacity="1" stroke="none" d="m 74,54 0,31 11,-1 0,-24 z" transform="translate(0,860.36218)"/><path id="path3812" fill="#ff5252" fill-opacity="1" stroke="none" d="m 118,914.36218 0,31 -11,0 0,-25 z"/><path id="path3768" fill="#5d4037" fill-opacity="1" stroke="none" d="m 123,943.36216 -4,10 0,5 -7,2e-5 -12,51.00002 -8,0 -12,-51.00002 -7,-2e-5 0,-5 -4,-10 z"/><path id="rect3816" fill="#795548" fill-opacity="1" stroke="none" d="M 96 83 L 96 93 L 119 93 L 123 83 L 96 83 z M 96 98 L 96 149 L 100 149 L 112 98 L 96 98 z" transform="translate(0,860.36218)"/><rect id="rect3823" width="23" height="5" x="73" y="953.362" fill="#795548" fill-opacity="1" stroke="none"/></g></svg>